{
    "asset" : {
        "generator" : "Khronos glTF Blender I/O v3.3.32",
        "version" : "2.0"
    },
    "scene" : 0,
    "scenes" : [
        {
            "name" : "Scene",
            "nodes" : [
                15
            ]
        }
    ],
    "nodes" : [
        {
            "name" : "bone_3_end",
            "rotation" : [
                -1.955777406692505e-08,
                2.8312206268310547e-07,
                1.955777406692505e-08,
                1
            ],
            "scale" : [
                1,
                0.9999999403953552,
                1
            ],
            "translation" : [
                -5.061594129074365e-05,
                787.5370483398438,
                -2.0165116438874975e-05
            ]
        },
        {
            "children" : [
                0
            ],
            "name" : "bone_3",
            "rotation" : [
                -0.09204770624637604,
                0.19802403450012207,
                0.2973800599575043,
                0.9294508099555969
            ],
            "scale" : [
                1,
                0.9999998807907104,
                0.9999999403953552
            ],
            "translation" : [
                464.060791015625,
                -634.8994750976562,
                41.99996566772461
            ]
        },
        {
            "name" : "bone_4_end",
            "rotation" : [
                7.916241884231567e-08,
                3.91155481338501e-08,
                -2.7939677238464355e-08,
                1
            ],
            "translation" : [
                6.032132660038769e-06,
                313.62646484375,
                -9.266657434636727e-05
            ]
        },
        {
            "children" : [
                2
            ],
            "name" : "bone_4",
            "rotation" : [
                -0.880929172039032,
                -0.0028401492163538933,
                0.12785334885120392,
                0.45564162731170654
            ],
            "scale" : [
                0.9999999403953552,
                0.9999998807907104,
                1
            ],
            "translation" : [
                34.971405029296875,
                183.39886474609375,
                251.99929809570312
            ]
        },
        {
            "name" : "bone_5_end",
            "rotation" : [
                -2.3283060812673284e-08,
                -3.054737760521675e-07,
                -3.5390254282674505e-08,
                1
            ],
            "scale" : [
                1.0000001192092896,
                1.0000001192092896,
                1.0000001192092896
            ],
            "translation" : [
                -8.437371434411034e-05,
                787.5371704101562,
                5.640600647893734e-06
            ]
        },
        {
            "children" : [
                4
            ],
            "name" : "bone_5",
            "rotation" : [
                0.09217820316553116,
                -0.19843223690986633,
                0.2973397374153137,
                0.9293637275695801
            ],
            "scale" : [
                0.9999999403953552,
                0.9999998807907104,
                0.9999998211860657
            ],
            "translation" : [
                464.06085205078125,
                -634.8994750976562,
                -41.99980926513672
            ]
        },
        {
            "name" : "bone_6_end",
            "rotation" : [
                -5.587935447692871e-08,
                4.6566128730773926e-08,
                2.2351741790771484e-08,
                1
            ],
            "translation" : [
                -4.256398096913472e-05,
                304.0685729980469,
                -5.19954483024776e-06
            ]
        },
        {
            "children" : [
                6
            ],
            "name" : "bone_6",
            "rotation" : [
                0.8851589560508728,
                0.002675168216228485,
                0.13441403210163116,
                0.44544291496276855
            ],
            "scale" : [
                0.9999999403953552,
                0.9999998807907104,
                1.0000001192092896
            ],
            "translation" : [
                34.97145080566406,
                183.398681640625,
                -239.99940490722656
            ]
        },
        {
            "children" : [
                1,
                3,
                5,
                7
            ],
            "name" : "bone_2",
            "rotation" : [
                0.6996279954910278,
                0.10245970636606216,
                0.699661135673523,
                0.10245479643344879
            ],
            "scale" : [
                0.9999998807907104,
                0.9999998807907104,
                1.0000004768371582
            ],
            "translation" : [
                0,
                4.57763671875e-05,
                -1.1026859283447266e-05
            ]
        },
        {
            "name" : "bone_8_end",
            "rotation" : [
                -1.7053028368747836e-13,
                4.024627742182929e-09,
                -4.470845027526593e-08,
                1
            ],
            "scale" : [
                1,
                0.9999999403953552,
                1
            ],
            "translation" : [
                4.1961669921875e-05,
                833.9991455078125,
                -2.328313097876844e-10
            ]
        },
        {
            "children" : [
                9
            ],
            "name" : "bone_8",
            "rotation" : [
                -8.566024916945025e-06,
                -5.017810508434195e-06,
                -0.9857437610626221,
                0.16825351119041443
            ],
            "scale" : [
                1.0000007152557373,
                0.9999998807907104,
                0.9999998807907104
            ],
            "translation" : [
                -276.6456604003906,
                786.78076171875,
                -0.005846351385116577
            ]
        },
        {
            "children" : [
                10
            ],
            "name" : "bone_7",
            "rotation" : [
                0.6996409893035889,
                0.10245800018310547,
                0.6996481418609619,
                0.10245665907859802
            ],
            "scale" : [
                1,
                1,
                1.0000027418136597
            ],
            "translation" : [
                0,
                4.57763671875e-05,
                -1.1026859283447266e-05
            ]
        },
        {
            "children" : [
                8,
                11
            ],
            "name" : "bone_1",
            "rotation" : [
                -0.9890157580375671,
                0,
                0,
                0.14781031012535095
            ],
            "scale" : [
                1,
                0.9999999403953552,
                0.9999988675117493
            ],
            "translation" : [
                0,
                855,
                262
            ]
        },
        {
            "children" : [
                12
            ],
            "name" : "bone_0",
            "rotation" : [
                -0.7071068286895752,
                0,
                0,
                0.7071068286895752
            ],
            "scale" : [
                1,
                0.9999998807907104,
                1
            ]
        },
        {
            "mesh" : 0,
            "name" : "VisID:0",
            "skin" : 0
        },
        {
            "children" : [
                14,
                13
            ],
            "name" : "chicken",
            "rotation" : [
                0.7071068286895752,
                0,
                0,
                0.7071067094802856
            ],
            "scale" : [
                0.0009999871253967285,
                0.0009999871253967285,
                0.0009999871253967285
            ]
        }
    ],
    "materials" : [
        {
            "alphaMode" : "BLEND",
            "doubleSided" : true,
            "name" : "chicken_mat",
            "pbrMetallicRoughness" : {
                "baseColorTexture" : {
                    "index" : 0
                },
                "metallicFactor" : 0,
                "roughnessFactor" : 0.5
            }
        }
    ],
    "meshes" : [
        {
            "name" : "VisID:0",
            "primitives" : [
                {
                    "attributes" : {
                        "POSITION" : 0,
                        "NORMAL" : 1,
                        "TEXCOORD_0" : 2,
                        "JOINTS_0" : 3,
                        "WEIGHTS_0" : 4
                    },
                    "indices" : 5,
                    "material" : 0
                }
            ]
        }
    ],
    "textures" : [
        {
            "sampler" : 0,
            "source" : 0
        }
    ],
    "images" : [
        {
            "mimeType" : "image/png",
            "name" : "chicken_00-chicken_00",
            "uri" : "chicken_00-chicken_00.png"
        }
    ],
    "skins" : [
        {
            "inverseBindMatrices" : 6,
            "joints" : [
                13,
                12,
                8,
                1,
                0,
                3,
                2,
                5,
                4,
                7,
                6,
                11,
                10,
                9
            ],
            "name" : "chicken"
        }
    ],
    "accessors" : [
        {
            "bufferView" : 0,
            "componentType" : 5126,
            "count" : 191,
            "max" : [
                0.6696633100509644,
                2.6188101768493652,
                1.4352495670318604
            ],
            "min" : [
                -0.6696633100509644,
                -2.1073746836464124e-07,
                -2.0341174602508545
            ],
            "type" : "VEC3"
        },
        {
            "bufferView" : 1,
            "componentType" : 5126,
            "count" : 191,
            "type" : "VEC3"
        },
        {
            "bufferView" : 2,
            "componentType" : 5126,
            "count" : 191,
            "type" : "VEC2"
        },
        {
            "bufferView" : 3,
            "componentType" : 5121,
            "count" : 191,
            "type" : "VEC4"
        },
        {
            "bufferView" : 4,
            "componentType" : 5126,
            "count" : 191,
            "type" : "VEC4"
        },
        {
            "bufferView" : 5,
            "componentType" : 5123,
            "count" : 618,
            "type" : "SCALAR"
        },
        {
            "bufferView" : 6,
            "componentType" : 5126,
            "count" : 14,
            "type" : "MAT4"
        }
    ],
    "bufferViews" : [
        {
            "buffer" : 0,
            "byteLength" : 2292,
            "byteOffset" : 0,
            "target" : 34962
        },
        {
            "buffer" : 0,
            "byteLength" : 2292,
            "byteOffset" : 2292,
            "target" : 34962
        },
        {
            "buffer" : 0,
            "byteLength" : 1528,
            "byteOffset" : 4584,
            "target" : 34962
        },
        {
            "buffer" : 0,
            "byteLength" : 764,
            "byteOffset" : 6112,
            "target" : 34962
        },
        {
            "buffer" : 0,
            "byteLength" : 3056,
            "byteOffset" : 6876,
            "target" : 34962
        },
        {
            "buffer" : 0,
            "byteLength" : 1236,
            "byteOffset" : 9932,
            "target" : 34963
        },
        {
            "buffer" : 0,
            "byteLength" : 896,
            "byteOffset" : 11168
        }
    ],
    "samplers" : [
        {
            "magFilter" : 9729,
            "minFilter" : 9987
        }
    ],
    "buffers" : [
        {
            "byteLength" : 12064,
            "uri" : "untitled.bin"
        }
    ]
}
